<svg xmlns="http://www.w3.org/2000/svg" width="630" height="630" viewBox="0 0 630 630" fill="none"><path d="M548.333 281.667H81.6667C44.8477 281.667 15 311.515 15 348.334V548.334C15 585.153 44.8477 615 81.6667 615H548.333C585.152 615 615 585.153 615 548.334V348.334C615 311.515 585.152 281.667 548.333 281.667Z" stroke="#000040" stroke-width="30" stroke-linecap="round" stroke-linejoin="round"></path><path d="M315 148.333C351.819 148.333 381.666 118.486 381.666 81.6667C381.666 44.8477 351.819 15 315 15C278.181 15 248.333 44.8477 248.333 81.6667C248.333 118.486 278.181 148.333 315 148.333Z" stroke="#000040" stroke-width="30" stroke-linecap="round" stroke-linejoin="round"></path><path d="M315 148.333V281.666" stroke="#000040" stroke-width="30" stroke-linecap="round" stroke-linejoin="round"></path><circle cx="181.666" cy="448.333" r="33.3333" fill="#000040"></circle><circle cx="448.333" cy="448.333" r="33.3333" fill="#000040"></circle></svg>