<svg xmlns="http://www.w3.org/2000/svg" xmlns:xlink="http://www.w3.org/1999/xlink" height="800px" width="800px" id="Capa_1" viewBox="0 0 58.916 58.916" xml:space="preserve" fill="#000000"><g id="SVGRepo_bgCarrier" stroke-width="0"></g><g id="SVGRepo_tracerCarrier" stroke-linecap="round" stroke-linejoin="round"></g><g id="SVGRepo_iconCarrier"> <g> <path style="fill:#00CC6A;" d="M51.949,19.356l-4.271-6.457c-0.305-0.461-0.552-1.222-0.552-1.7c0-0.477,0.177-0.865,0.396-0.865 c0.22,0,0.396-0.447,0.396-1V1c0-0.553-0.447-1-1-1H12.084c-0.553,0-1,0.447-1,1v8.333c0,0.553,0.158,1,0.354,1 c0.195,0,0.353,0.388,0.353,0.865c0,0.478-0.247,1.239-0.552,1.7l-4.271,6.457c-0.305,0.461-0.552,1.281-0.552,1.834v36.727 c0,0.553,0.447,1,1,1h22H29.5h22c0.553,0,1-0.447,1-1V21.19C52.501,20.637,52.254,19.817,51.949,19.356z M43.187,2.249 c0-0.276,0.225-0.5,0.5-0.5c0.277,0,0.5,0.224,0.5,0.5v6.5c0,0.276-0.223,0.5-0.5,0.5c-0.275,0-0.5-0.224-0.5-0.5V2.249z M37.437,2.249c0-0.276,0.225-0.5,0.5-0.5c0.277,0,0.5,0.224,0.5,0.5v6.5c0,0.276-0.223,0.5-0.5,0.5c-0.275,0-0.5-0.224-0.5-0.5 V2.249z M31.687,2.249c0-0.276,0.225-0.5,0.5-0.5c0.277,0,0.5,0.224,0.5,0.5v6.5c0,0.276-0.223,0.5-0.5,0.5 c-0.275,0-0.5-0.224-0.5-0.5V2.249z M25.938,2.249c0-0.276,0.224-0.5,0.5-0.5s0.5,0.224,0.5,0.5v6.5c0,0.276-0.224,0.5-0.5,0.5 s-0.5-0.224-0.5-0.5V2.249z M20.188,2.249c0-0.276,0.224-0.5,0.5-0.5s0.5,0.224,0.5,0.5v6.5c0,0.276-0.224,0.5-0.5,0.5 s-0.5-0.224-0.5-0.5V2.249z M14.438,2.249c0-0.276,0.224-0.5,0.5-0.5s0.5,0.224,0.5,0.5v6.5c0,0.276-0.224,0.5-0.5,0.5 s-0.5-0.224-0.5-0.5V2.249z M48.501,53.916c0,0.553-0.446,1-1,1h-18h-0.084h-18c-0.553,0-1-0.447-1-1V43.042h38.084V53.916z M31.48,32.854h3.078c0.205,0,0.369,0.164,0.369,0.367v2.577c0,0.202-0.164,0.366-0.369,0.366H31.48 c-0.201,0-0.366,0.165-0.366,0.367v3.078c0,0.203-0.164,0.367-0.367,0.367h-2.576c-0.203,0-0.367-0.164-0.367-0.367v-3.078 c0-0.202-0.165-0.367-0.367-0.367h-3.078c-0.204,0-0.368-0.164-0.368-0.366v-2.577c0-0.203,0.164-0.367,0.368-0.367h3.078 c0.202,0,0.367-0.164,0.367-0.367v-3.078c0-0.203,0.164-0.367,0.367-0.367h2.576c0.203,0,0.367,0.164,0.367,0.367v3.078 C31.114,32.69,31.279,32.854,31.48,32.854z M48.501,26.624H10.417v-4.232c0-0.553,0.247-1.373,0.552-1.834l4.271-6.457 c0.305-0.461,0.552-1.281,0.552-1.834v-0.934c0-0.553,0.447-1,1-1h25.334c0.554,0,1,0.447,1,1v0.934 c0,0.553,0.247,1.373,0.552,1.834l4.271,6.457c0.305,0.461,0.552,1.281,0.552,1.834C48.501,22.392,48.501,26.624,48.501,26.624z"></path> </g> </g></svg>