<svg xmlns="http://www.w3.org/2000/svg" width="717" height="643" viewBox="0 0 717 643" fill="none"><path d="M641.667 151.334V351.334C641.667 477.041 641.667 539.897 602.613 578.947C563.563 618.001 500.707 618.001 375 618.001H341.667C215.959 618.001 153.105 618.001 114.052 578.947C75 539.897 75 477.041 75 351.334V151.334" stroke="#00CC6A" stroke-width="50" stroke-linecap="round"></path><path d="M375.578 346.613H420.866C423.752 346.613 425.75 347.279 426.86 348.611C427.97 349.721 428.525 351.719 428.525 354.605V373.253C428.525 378.359 425.972 380.912 420.866 380.912H375.578V426.866C375.578 432.194 372.914 434.858 367.586 434.858H347.939C342.611 434.858 339.947 432.194 339.947 426.866V380.912H294.659C289.553 380.912 287 378.359 287 373.253V354.605C287 351.719 287.555 349.721 288.665 348.611C289.775 347.279 291.773 346.613 294.659 346.613H339.947V300.992C339.947 295.664 342.611 293 347.939 293H367.586C372.914 293 375.578 295.664 375.578 300.992V346.613Z" fill="#00CC6A"></path><path d="M25 88C25 58.3015 25 43.4524 34.7679 34.226C44.5361 25 60.2573 25 91.7 25H625.3C656.742 25 672.464 25 682.232 34.226C692 43.4524 692 58.3015 692 88C692 117.699 692 132.548 682.232 141.774C672.464 151 656.742 151 625.3 151H91.7C60.2573 151 44.5361 151 34.7679 141.774C25 132.548 25 117.699 25 88Z" stroke="#00CC6A" stroke-width="50"></path></svg>