<svg xmlns="http://www.w3.org/2000/svg" xmlns:v="https://vecta.io/nano" viewBox="0 0 2760 2668" fill-rule="evenodd" stroke-miterlimit="10"><path d="M1238.79 2480.48c61.83-36.7 126.89-68.31 185.72-110.32 29.99-21.23 57.67-45.47 79.13-75.93 14.53-20.78 30.22-41.09 42.68-63.24 9-16.16 15.92-34.62 19.15-52.63 6.46-36.46-1.16-65.31-40.15-87.93-26.99-15.7-56.75-23.31-86.74-30.47l-151.34-33.46c-38.76-8.08-77.98-9.93-117.43-4.62-37.15 5.31-73.37 12.93-109.36 24-18.45 5.77-38.06 8.08-56.75 12.7-42.221 10.61-84.209 6.23-125.506-4.62-50.294-13.15-91.359-41.54-124.12-83.32-26.3-33.46-44.526-71.08-60.214-110.09-16.611-40.85-31.145-82.63-34.606-127.17-3.922-48.93 8.536-92.55 44.988-126.25 32.991-30.47 67.828-58.62 101.28-88.86 48.448-43.62 89.975-93.7 120.198-151.86 18.917-36.47 33.683-75.94 34.375-117.94.923-49.63-8.536-97.86-37.836-139.64l-57.907-81.24c-16.842-24.23-31.838-50.315-37.375-79.166-4.152-21.002 2.077-43.159 11.074-63.47 11.536-26.08 28.377-47.545 48.449-67.163 40.373-39.929 85.822-71.548 138.65-92.782 41.99-17.079 83.29-16.156 125.74-4.616 32.53 8.77 61.37 26.311 89.74 43.852 30.92 19.387 60.45 40.621 91.82 58.393 48.45 27.465 100.82 44.544 155.96 50.545l164.96 15.695c65.06 7.385 127.35 24.003 183.87 60.239 26.76 17.31 50.98 37.62 74.29 59.313 37.83 35.32 75.67 70.86 111.89 107.79 50.52 51.47 90.9 110.32 115.35 179.56 10.84 30.47 18.46 62.09 20.53 94.17 2.54 42.46-1.15 84.93-6.92 127.17-7.38 56.08-19.38 111.71-20.3 168.71-.69 41.09 3.23 82.17 20.3 119.79 7.85 17.31 19.84 33 35.07 45.93 25.84 21.69 54.22 37.62 84.9 50.31 44.99 18.93 84.67 45.93 112.58 87.71 10.39 15.23 19.15 31.85 20.77 50.77 3.92 43.86-28.84 80.78-71.29 75.25-23.3-3-43.83-12.24-63.91-23.32-20.3-11.3-39.45-25.38-61.13-33.23-33.92-12.23-66.68-5.08-91.59 21.69-18.23 19.62-34.84 41.78-41.53 69.24-5.77 24.24-5.77 47.78.23 72.48 17.53 73.16 64.83 125.55 116.28 174.48m-889.6 85.4c57.21-30.93 116.27-58.86 169.33-97.4 36.69-26.54 69.22-57.24 97.36-92.78 21.23-26.54 42.45-53.32 62.29-81.01 16.84-23.31 33.46-47.32 41.3-75.71 7.15-25.38 8.54-51.46-9.92-72.93-9-10.62-20.76-19.85-33.22-25.62-26.07-12.46-54.91-13.85-83.29-16.15l-86.74-6c-57.68-4.16-113.97-18.01-170.49-29.32-34.61-6.92-69.45-10.61-105.21-7.84-29.99 2.07-58.83 8.54-87.43 17.08-30.69 9-61.37 19.38-92.75 26.08-46.6 9.92-93.203 7.15-138.191-11.31-62.29-25.62-96.896-76.63-121.582-136.64-11.304-27.69-20.071-56.08-22.84-85.85-5.537-56.55 4.845-110.33 39.682-155.8 18.687-24 41.296-44.54 62.983-66 41.065-40.39 80.055-82.4 113.045-129.95 32.991-47.31 55.37-99.47 67.133-156.25 7.15-34.16 5.54-68.78-1.61-102.47-6.231-30.47-17.997-59.09-35.069-85.4-20.072-31.16-39.22-62.78-57.677-94.859-32.76-57.701-11.997-114.708 27.223-153.252 33.222-32.543 72.213-54.469 116.273-66.24 16.84-4.385 35.99-4.847 53.3-2.539 27.45 3.924 54.9 9.001 80.28 22.388l111.2 58.623c61.37 30.697 126.66 47.314 194.95 51.238 52.83 3 105.89 6.232 158.72 11.54 65.29 6.693 126.89 25.85 179.72 66.932 33.23 25.849 64.83 54.239 96.21 82.629 36.91 33.23 72.9 67.85 105.2 105.94 33.68 40.16 56.99 85.39 73.6 135.01 16.38 48.93 16.15 98.56 9.22 148.41-8.3 61.39-25.37 120.48-43.83 179.1-15.23 48.7-28.38 98.55-38.07 148.87-7.84 40.39-8.76 82.16-14.07 123.01-4.84 37.86-14.3 74.32-26.99 110.1-12 33.46-27.69 66.24-30.92 102.24-4.38 48.01 7.39 92.09 32.53 133.64 37.84 62.54 83.98 117.93 134.5 169.87m-672.97 4.85c44.07-25.85 85.37-56.09 122.05-92.79 39.22-39.23 79.36-77.78 119.73-115.4 26.07-24.46 54.68-45.93 86.75-62.08 29.53-15 55.14-9.93 77.75 16.38l98.51 116.33c57.67 66.01 115.35 132.48 180.18 191.56m-693.73-18.47c51.45-26.08 98.28-59.54 143.04-96.24 33.22-27.24 65.98-55.39 100.58-81.01 25.84-19.16 55.14-31.85 86.29-39.7 9.46-2.31 20.07.46 29.99 1.38 30.45 3.01 56.75 17.31 81.44 34.62 41.76 29.32 77.29 65.78 113.51 101.56m-729.27 45.93c46.61-27.46 93.9-54.01 135.89-88.86s76.59-76.62 90.9-131.32c7.38-27.93 1.61-60.93-26.53-84.24-28.38-23.32-61.6-34.39-94.82-45.01-26.77-8.54-54.45-15.23-81.9-20.54-24.69-4.85-49.61-9-74.75-9.47-26.76-.46-53.99 2.31-80.52 6.01-21.22 3-41.53 9.92-62.29 14.77-17.07 4.15-34.14 8.07-51.22 11.54-14.99 3-29.758 7.15-44.754 8.31-75.902 5.07-147.421-9.01-208.327-58.63-35.529-28.85-62.983-65.55-84.669-106.4-14.765-28.15-28.608-56.77-42.45-85.39l-24.685-58.4c-9.459-26.54-20.764-52.39-23.302-81.01-2.076-23.08-5.767-43.85 4.384-64.62 0 0 18.225-27.93 33.913-40.62 15.688-12.7 32.53-24.93 54.447-41.32 32.068-24 66.674-44.77 97.819-70.16 34.606-27.93 62.752-62.78 86.515-100.86 26.993-43.39 46.833-88.86 46.372-141.94-.231-30.93-3.461-61.4-17.534-88.63-13.381-26.08-31.376-50.08-48.448-74.32-20.071-28.16-43.142-54.24-62.291-83.086-22.147-33.236-26.531-69.702-10.151-107.092 11.536-26.311 27.685-49.161 47.756-69.702 56.062-57.239 115.353-109.631 189.875-140.789 23.76-9.924 48.44-18.002 74.51-16.156 39.46 3.001 76.6 13.387 111.44 33.697 40.83 23.773 77.51 53.546 115.58 81.473 18.22 13.617 37.37 26.542 57.68 36.467 50.98 24.695 105.43 37.389 161.72 43.159 60.91 6.001 122.04 10.156 182.26 22.85 55.14 11.54 105.66 33.927 149.73 68.317 39.22 30.696 75.21 65.782 111.43 100.402 57.44 54.93 111.89 112.17 149.03 184.18 20.07 39 36.92 79.39 46.14 122.55 7.85 36.93 9.23 74.55 8.31 112.17-1.15 49.16-7.15 98.32-2.54 147.71 2.54 27.24 4.62 54.93 11.54 81.24 8.99 33.47 29.53 61.4 54.67 84.94 37.61 35.31 77.29 68.55 114.67 104.09 35.52 33.93 67.36 70.4 89.05 116.09 17.76 37.86 16.84 74.78 4.61 111.48-15.69 46.62-47.29 81.94-86.74 110.09-27.69 19.85-58.37 33.47-90.44 43.86-12.46 3.92-25.38 15.69-23.99 24.23 1.84 12.23 3.69 25.39 9.69 35.77 15.22 27.24 32.06 53.78 49.37 79.86m-724.88-3.93c24.69-18.23 48.45-38.31 74.06-55.16 31.6-20.77 64.36-39.93 102.66-44.54 26.99-3.23 53.53 1.38 78.44 12 30.69 12.93 60.22 29.08 85.82 50.31 34.15 28.16 66.91 58.17 98.28 89.56m-461.87 8.3c33.45-22.15 67.14-44.08 101.28-64.85 27.69-16.85 57.22-30.47 89.05-37.39 13.38-3 28.38-1.39 42.22 0 41.3 3.92 77.52 21.93 112.59 43.16m-142.81 69.93c15-3.23 31.61-.46 47.06 1.16m-213.63-1.85c38.76-23.54 77.52-46.62 119.74-64.39 37.14-15.47 74.05-14.31 111.89-5.31 35.76 8.77 67.36 26.77 98.05 46.62m-284.92 30.46c28.6-15.46 58.13-29.77 88.36-42 25.61-10.39 53.29-9.69 80.51-5.54 42.22 6.23 79.83 24.7 115.36 47.78m525.54-95.79c-3.92-47.54 11.54-91.39 26.54-128.78 4.38-11.31 9.22-22.39 13.61-33.47 9.46-22.39 19.15-45.7 26.76-69.01 10.38-31.39 15.46-63.7 15-95.78-.24-26.08-9.23-49.16-20.08-74.55-18.45-43.39-47.75-80.78-73.82-112.4l-25.84-31.16-84.21-104.09c-28.61-36.93-46.6-69.24-56.98-101.55-6.92-21.47-12.69-44.55-17.31-68.55-4.38-22.62-7.15-45.01-9.92-71.55-1.15-11.54-1.84-23.08-2.77-34.39-.92-15.69-2.07-31.62-4.38-47.31-8.53-57.01-27.45-112.17-57.21-168.25-32.76-61.4-72.68-117.94-119.05-168.03-28.14-30.23-57.67-60.01-86.51-88.626l-42.22-42.467c-40.61-41.313-90.67-71.779-152.96-92.782-25.61-8.771-53.29-14.079-79.82-19.157l-16.15-3c-21.92-4.154-44.53-7.155-66.22-9.924-34.37-4.386-69.9-9.002-104.28-18.926-37.14-10.848-80.28-25.85-117.66-54.931-32.06-24.926-64.36-54.7-99.2-90.705-36.68-38.082-81.21-69.009-136.35-94.859-32.53-15.463-68.05-25.85-108.2-31.62-31.37-4.616-59.52 4.386-89.05 28.158-22.147 17.772-41.527 39.236-60.214 60.239l-26.992 29.312-116.045 118.401c-11.074 11.078-22.61 21.926-33.914 32.312-16.15 15.002-32.53 30.466-47.756 46.853-23.532 25.157-36.452 53.776-38.067 85.396-.461 7.616-.461 16.387 2.076 22.849l1.154 3.001c7.152 18.002 14.535 36.466 27.915 50.776l41.989 44.54 50.063 53.09c19.61 21 41.527 46.85 53.985 80.09 17.534 46.16 16.842 90.93-2.076 133.17-22.84 50.54-57.907 90.47-107.509 122.09-27.223 17.31-56.754 30.01-85.361 42.24l-33.914 14.77-3.23 1.62c-6.229 3.23-12.689 6.23-18.918 9.23-14.073 6.69-28.607 13.38-41.065 22.39-32.53 23.54-53.755 50.31-64.829 81.7-9.228 26.08-18.918 60.7-12.458 95.78 5.537 30.01 18.918 57.7 39.912 82.86 51.909 62.55 94.359 115.86 132.656 173.1 10.151 15.23 21.456 30 33.453 43.85l.23.23 10.613 13.85c26.531 30.01 53.985 60.93 89.975 82.4 45.218 27 92.513 43.85 140.039 49.85 36.682 4.85 68.75 5.31 98.508 1.85 12.23-1.62 24.69-3.93 36.92-6l23.53-4.16 20.99-3.46 75.9-11.77c15.46-1.85 31.38-1.62 46.84-1.39h5.53c28.38.7 54.68 9.7 76.6 18.47 20.07 8.08 38.07 21.46 51.68 38.31 20.07 24.93 19.84 56.78-.69 89.55-19.61 31.16-47.07 58.39-86.52 85.63m363.56-667.34c-4.47-.23-8.93-.9-13.39-.45-23.88 2.68-47.53 2.23-71.41-2.68-21.87-4.46-38.38-15.85-49.09-35.49-12.27-22.32-20.75-45.99-26.56-70.99-4.68-19.42-10.26-38.62-15.39-57.82l-15.4-56.7-13.61-51.34c-2.46-9.82-4.46-19.64-6.25-29.69-3.79-22.55-8.7-44.65-11.16-67.42-4.01-41.07-5.35-82.37 5.58-122.55 4.91-17.86 12.72-34.6 27.23-48.44 29.45-28.13 64.93-42.41 102.87-53.35 43.51-12.28 86.13-7.15 127.41 7.36 31.24 11.17 59.8 28.58 84.8 51.35l104.43 93.53c27.22 25.9 48.2 56.7 61.14 93.09 9.15 26.34 8.48 51.79 6.03 78.58-5.36 56.03-28.57 105.14-59.36 149.78-27.67 39.96-64.94 70.99-110.23 89.97-27.23 11.38-54.68 20.98-84.35 25-14.29 1.78-28.12 5.13-42.18 7.81m-637.824 148.72c-4.153-.7-8.536-1.16-12.92-1.85-30.684-3.69-50.063-30-43.834-61.85 7.844-40.63 33.222-64.86 69.212-81.02 24.226-10.84 56.986-1.15 68.746 14.54 14.54 19.39 13.15 39.47 4.62 60.24-12.92 31.39-38.07 49.4-67.37 62.78-5.765 2.54-11.533 4.62-17.301 7.16m486.171-49.63l-40.61-3.92c-36.65 0-56.29-45.01-55.14-75.47 1.16-27.7 2.77-55.62 1.16-83.09-1.85-32.77-4.16-66.01-11.31-97.63-8.76-39.23-22.84-77.32-34.37-115.86l-23.53-79.86c-9-29.31-14.31-59.54-16.38-90.01-2.54-37.85-3.23-75.93 15.45-110.78 10.15-18.7 26.3-30.01 44.07-39.7 28.14-15.47 58.14-26.08 89.51-33.24 23.07-5.31 45.68-12.23 68.98-15.92 19.15-3 38.76-3.93 57.91-3.23 31.14 1.38 62.06 5.3 91.82 16.38 38.3 14.31 71.52 36.24 102.2 62.55 21.92 18.69 42.68 38.54 64.14 57.93 32.07 28.85 63.67 58.62 88.13 94.63 19.15 27.93 32.53 58.85 35.53 93.24 2.77 29.08-.92 58.16-7.85 86.32-15.68 63.93-44.29 122.1-85.59 172.64-33.91 41.31-76.13 72.24-126.19 90.71-26.77 9.69-54.22 17.08-81.44 25.15l-115.82 34.16c-19.84 5.77-39.91 10.16-59.98 15.24m-13.22 64.85c-18.69-2.54-37.61-3.92-56.06-7.85-50.53-10.61-85.37-40.39-102.67-90.01-5.54-15.69-2.77-32.77 0-48.93 5.08-29.31 12.69-58.16 16.15-87.7 3-27.01-.23-53.78-6.46-80.78-9-39.93-27.68-75.24-43.6-111.94-15.23-35.08-28.84-70.63-32.76-108.94l-7.62-73.86c-2.07-27.69-4.15-55.62-4.15-83.55 0-21.69 1.62-43.62 4.85-64.85 3.92-24 19.84-38.55 41.52-46.39 12.69-4.62 25.61-8.77 38.53-10.85 32.07-5.08 64.6-9.23 96.9-13.16 36.91-4.61 73.82-9.69 110.74-12.23 46.6-3.46 93.43-4.38 139.57 5.54 52.14 11.08 97.36 35.31 137.04 71.55 32.76 30 67.14 58.62 98.98 89.78 24.91 24.24 49.37 49.39 69.67 77.32 23.76 32.77 38.3 70.86 39.91 112.17 1.15 34.39-5.07 68.08-13.61 101.09-14.07 53.78-39.91 102.24-68.06 149.33-25.84 43.39-60.21 78.93-101.51 106.86-26.07 17.54-55.14 30-85.13 39.7-62.98 20.31-125.97 40.39-187.33 65.77-26.76 11.31-54.68 19.62-84.21 22.16m252.85-347.35c-3.46-.23-6.92-.47-10.38-.93-33.91-4.84-56.52-23.31-69.9-55.85-14.77-36.01-9.46-69.47 6-102.48 7.61-16.15 35.99-29.08 54.67-27.46 48.22 4.15 78.21 32.08 94.82 76.16 6.46 17.08 1.16 35.31-4.61 51.7-11.31 33.24-37.84 49.62-69.67 58.63m-9.93 69.23l-17.3-1.15c-54.91-3.92-91.36-33.47-113.74-84.01-13.84-30.93-20.53-63.01-22.84-96.48-.92-15.23.7-30.69 2.77-45.92 3.92-27.7 7.62-55.4 22.15-80.32 15-26.32 36.22-44.32 66.21-45.47 18-.69 37.15 4.15 53.99 11.08 29.76 12.46 58.6 27.69 83.74 48.93 28.15 23.77 50.99 51.23 64.37 86.09 5.77 14.77 7.85 30.23 6.23 45.93-3.23 33.69-12.69 66-32.76 92.78-12.23 16.15-29.3 29.08-45.68 41.31-19.38 14.77-42.22 22.85-66.21 26.77M930.567 130.005c-13.612 5.078-27.916 7.847-41.989 11.54m-1.152.228c-16.611-1.615-33.683-1.615-49.832-5.308M1480.8 1912.94c-3-.46-6.23-1.38-9.23-.92-62.29 6.46-120.89-8.77-177.87-33.23-24.23-10.39-49.37-18.47-74.75-26.08-9.69-2.77-20.53-1.39-30.91-.93-38.3 2.31-72.91 15.7-107.05 32.54-27 13.62-54.68 27.24-83.749 34.39-59.753 14.54-120.198-3.69-146.498-72.93-18.226-48.01-6.921-92.55 13.842-136.17 20.533-43.39 56.523-72.93 91.36-103.4 29.992-26.08 61.825-50.32 89.975-78.01 28.15-27.7 49.14-60.93 61.83-99.94 17.3-53.31 27.22-107.78 31.14-163.41 2.77-42.23-1.61-84.47-10.38-125.78-7.15-33.47-18.45-66.24-27.91-99.25-4.39-15.23-9.69-30.23-7.62-46.849 3.46-29.312 29.07-53.084 57.68-49.391 31.84 3.923 63.91 9.001 95.05 16.386 44.76 10.386 89.75 18.926 135.89 19.849h104.51c39.45 0 78.9-1.385 118.12.923 63.21 3.463 123.43 18.695 175.1 58.162 28.38 21.7 55.14 45.47 81.91 69.47 29.06 26.31 57.44 53.32 85.59 80.78 32.76 32.08 58.6 69.24 74.98 112.63 10.84 28.39 14.99 57.47 13.61 88.17-3 64.16-19.38 124.4-47.3 181.41-20.76 42.7-42.91 84.7-66.67 125.79-22.84 39-53.99 71.31-90.21 96.93-23.76 16.85-51.21 27.7-79.59 36.24l-162.88 51.24c-32.76 10.61-64.83 23.77-99.43 28.38-2.54.47-5.08 2.31-7.62 3.24m-11.99 36.23c-17.31-.69-34.61-.92-51.91-2.54-42.68-4.38-84.21-13.62-125.28-26.31-31.6-9.69-63.44-19.16-96.66-18-20.77.46-41.99 3.46-61.6 9.46-41.3 12.69-81.44 29.77-122.74 42.7-50.982 15.92-100.814 10.15-145.571-20.31-14.765-9.93-27.224-25.85-36.452-41.55-14.996-25.15-26.762-52.16-29.069-82.39-2.076-26.78 1.154-52.86 8.306-78.01 11.766-41.78 33.913-77.55 64.136-108.25 33.914-34.16 68.52-67.62 100.357-103.63 44.753-50.54 79.363-107.78 98.513-174.02 11.3-38.78 19.38-78.01 18.92-118.4-.47-30.01-4.85-60.01-12.69-89.32-12.69-46.16-35.3-87.71-55.6-130.41-13.38-27.924-18-55.851-6-85.624 9.46-23.311 28.84-33.697 49.37-42.698 19.15-8.309 39.45-8.771 59.98-5.77 50.99 7.155 98.05 28.85 146.04 45.929 41.53 14.771 83.52 26.542 127.12 30.235 29.53 2.539 59.06 2.308 88.59 3.462 49.14 1.847 98.51 2.077 147.65 6.232 60.22 5.077 116.74 24.003 165.42 61.624 27.45 21.23 53.52 44.31 79.13 67.62 29.07 26.32 58.14 52.63 85.36 81.02 27.69 28.85 53.99 58.85 71.06 96.24 15 33 26.07 66.7 27.91 102.71.93 20.31-.23 41.08-3.23 61.16-6.22 42-16.84 83.09-32.29 122.55-28.61 72.48-62.99 141.72-100.13 209.8-18.92 34.62-41.53 66.7-72.44 91.63-17.54 14.08-37.38 25.16-59.06 29.77-40.61 8.54-81.44 14.08-122.05 21.7-20.53 3.92-40.6 9.92-61.13 15-22.61 5.54-44.99 11.31-67.83 15.93-24.92 4.84-50.06 8.54-74.98 12.69m365.44 65.09c-21.23-1.39-39.92-11.31-59.06-19.85-29.07-12.7-58.37-25.39-90.67-26.54-16.38-.47-32.99-.7-49.14.92-33.68 3-66.91 7.85-100.59 10.85-75.44 6.92-149.5-1.62-223.09-19.85-32.76-8.08-65.75-16.62-99.9-17.31-30.22-.46-60.21 2.54-89.05 11.08l-107.97 33c-41.759 12.7-83.747 12.46-125.043-1.15-25.609-8.31-49.371-21.01-68.289-42.7-25.609-29.31-41.758-62.55-53.524-99.48-15.227-47.77-11.305-94.39 3.23-140.55 11.766-36.7 33.913-67.17 60.445-94.63 29.991-31.16 60.445-61.63 89.283-93.94 52.139-58.85 92.748-125.09 113.738-202.18 7.61-28.16 11.3-56.78 10.84-86.55-1.15-58.62-18.68-111.25-48.676-160.64-17.764-29.08-34.144-58.85-46.833-90.703-10.151-25.388-5.076-49.622 4.383-72.933 14.073-34.851 42.912-54.008 75.446-68.548 11.99-5.309 24.68-9.925 37.37-12.002 31.38-5.077 62.52.693 91.82 11.079 32.99 11.77 64.6 26.773 96.44 41.544 57.67 26.773 116.96 47.083 180.41 52.392 31.83 2.769 63.9 3.462 95.74 4.846 61.14 2.308 122.27 4.386 181.8 21.234 32.99 9.232 62.98 25.619 92.05 43.622 32.3 20.309 58.83 48.009 86.74 73.629l89.29 83.78c41.06 39.93 72.9 86.32 92.51 140.55 10.15 27.93 15 56.78 15.69 86.79 1.38 53.54-8.77 105.01-24.69 154.86-15.45 48.47-35.99 95.32-53.52 143.1l-74.52 204.95c-12.23 33.01-25.84 65.32-47.99 93.01-14.3 17.78-31.6 30.93-53.52 37.62m-146.96-381.74c-13.38-.46-26.99 0-40.37-1.85-16.38-2.53-32.99-5.07-48.45-11.07-40.14-15.47-61.14-49.63-77.29-87.48-13.61-31.62-23.07-64.62-29.99-98.78-12.92-64.16-10.84-127.63 3.46-190.87 10.38-45.7 39.68-75.48 82.83-90.48 10.84-3.69 23.3-4.38 34.83-3.69 38.76 2.54 73.14 18.23 104.97 39.47 35.07 23.31 68.52 49.39 99.21 78.7 32.53 31.16 58.14 66.93 68.29 111.25 3.69 16.15 1.15 34.39-.7 51.46-4.38 41.55-21.45 78.71-44.75 111.94-18 25.62-41.53 46.86-70.14 61.63-25.84 13.38-52.37 24.23-80.98 29.31M1058.15 173.627c-33.69 37.62-63.216 79.165-101.744 112.169-29.991 25.85-63.213 38.544-103.356 33.928-51.217-5.77-98.511-23.08-139.577-53.546-28.377-21.003-51.448-49.391-66.905-82.627-12.458-27.003-25.377-54.007-35.99-81.703m377.435 55.16c-34.145 24.926-70.365 46.391-113.277 51.699-37.374 4.386-72.441-4.616-105.202-23.311-35.067-19.848-60.675-49.853-78.901-85.396m-131.042 16.851c11.766 44.313 27.685 87.012 48.217 127.863 17.303 34.39 40.835 63.471 70.366 87.474 26.762 21.695 58.138 35.543 88.36 51.238 27.916 14.309 54.908 29.773 80.286 48.468 28.377 20.772 34.836 49.853 32.991 81.011-2.307 38.775-20.533 72.472-41.758 103.63-34.606 51.007-75.672 96.705-121.121 138.019-28.146 25.619-56.523 51.007-83.515 77.78-25.147 24.926-38.067 56.777-42.45 92.089-.923 8.309-1.154 17.541 1.384 25.389 9.228 29.311 23.532 56.088 44.757 78.008 29.531 30.47 60.214 59.55 89.975 89.78 33.914 34.39 61.599 71.78 65.29 123.25 1.846 27.24-3.23 52.16-15.457 75.47-24.455 46.16-62.291 78.25-107.97 100.86 0 0-121.121 48.7-151.344 66.71-30.222 18-54.446 37.62-72.441 65.77-22.609 35.32-36.682 74.32-41.989 116.33-3.23 26.77-6.229 54 3 80.09 11.535 32.77 29.068 61.85 53.985 86.31 29.53 29.09 59.983 57.71 87.437 88.86 43.142 48.93 84.208 99.71 126.196 150.02l9.69 10.16c16.15 14.31 32.068 29.31 49.371 42.24 27.916 21 58.83 36.46 91.36 48.46 66.443 24.47 135.424 30.24 205.099 24.93 37.83-2.77 75.21-8.31 113.04-12.69 29.53-3.47 58.83-2.31 86.29 10.84 30.22 14.54 52.6 39.7 28.38 81.48-14.31 24.46-33 44.77-54.91 62.08l-155.5 119.56m1490.59-61.17c-3.92-47.54 4.85-93.93 19.84-139.86 15.23-46.85 32.3-93.25 39.22-142.64 4.16-30.23 6.46-60.24-.46-90.01-4.15-18-11.3-35.54-18.45-52.39-19.38-45.93-48.45-85.86-78.44-125.09l-109.36-147.72c-25.61-36.46-44.06-77.09-56.06-120.71-14.3-52.39-18.46-105.93-25.61-159.02-8.76-66.24-31.14-126.94-64.13-184.18-35.99-62.08-78.44-119.78-123.66-174.95-43.61-53.08-90.67-102.932-139.35-150.939-53.06-52.161-115.12-88.397-185.95-107.553-49.37-13.387-99.89-22.388-149.96-32.774-41.52-8.771-81.9-20.772-120.89-37.851-11.07-4.847-21.22-12.002-31.37-19.157-39.68-27.696-73.14-62.547-106.59-97.398-27.22-28.619-56.06-56.085-86.74-80.55-32.53-26.08-68.52-47.314-101.98-72.471-30.45-22.388-60.9-45.699-79.82-80.088-5.31-9.694-9.69-20.311-12.23-31.158-12.23-51.469-.23-98.552 26.3-142.635" fill="none" stroke="#efefef" stroke-width="3"></path></svg>